<svg width="300" height="40" viewBox="0 0 522 158" fill="none" xmlns="http://www.w3.org/2000/svg">
<path d="M286.3 51.7517C283.153 52.897 279.673 51.2745 278.528 48.1278L272.808 32.413C271.579 29.0342 273.133 25.3667 276.279 24.2214C279.426 23.0761 282.974 24.8867 284.204 28.2654L289.924 43.9802C291.069 47.1269 289.446 50.6064 286.3 51.7517V51.7517ZM301.657 49.6261L238.982 72.4379C237.409 73.0106 236.632 74.8442 237.247 76.5337L239.474 82.6516C240.089 84.3411 241.862 85.2463 243.436 84.6736V84.6736C245.009 84.1009 246.749 84.9122 247.322 86.4856L248.511 89.7545C252.866 101.718 263.033 109.749 274.184 111.384C278.836 112.066 283.36 114.587 284.968 119.005L287.042 124.704C288.188 127.851 291.667 129.474 294.814 128.328V128.328C297.96 127.183 299.583 123.704 298.438 120.557L296.363 114.858C294.755 110.439 296.6 105.601 299.726 102.087C307.217 93.6673 309.843 80.9801 305.489 69.0166L304.299 65.7476C303.726 64.1742 304.537 62.4345 306.111 61.8618V61.8618C307.684 61.2891 308.461 59.4555 307.846 57.766L305.619 51.6481C305.005 49.9587 303.231 49.0534 301.657 49.6261ZM252.113 64.1945C255.26 63.0492 256.883 59.5697 255.737 56.423L250.018 40.7082C248.788 37.3294 245.24 35.5188 242.093 36.6642C238.946 37.8095 237.392 41.477 238.622 44.8558L244.342 60.5706C245.487 63.7173 248.967 65.3398 252.113 64.1945V64.1945Z" fill="black"/>
<path d="M0 6.58664C0 5.74016 0.284593 5.18466 0.853778 4.92014C1.46091 4.60271 2.08701 4.444 2.73209 4.444H7.17174C7.55119 4.39109 8.27216 4.33819 9.33464 4.28528C10.4351 4.23238 11.5734 4.17947 12.7498 4.12657C13.964 4.02076 15.1024 3.9414 16.1649 3.8885C17.2653 3.83559 18.0432 3.78269 18.4985 3.72978C18.5744 3.83559 18.84 3.96786 19.2954 4.12657C19.7507 4.23238 20.0733 4.33819 20.263 4.444H20.5476C21.0409 4.444 21.4773 4.25883 21.8567 3.8885C22.2741 3.51816 22.6915 3.333 23.1089 3.333C23.1848 3.22719 23.4125 3.17428 23.792 3.17428C24.0955 3.17428 24.4181 3.20074 24.7596 3.25364C25.1011 3.30655 25.3098 3.333 25.3857 3.333C25.6892 3.22719 26.1636 3.12138 26.8086 3.01557C27.4917 2.85686 28.1747 2.69814 28.8577 2.53943C29.5787 2.38071 30.2237 2.24845 30.7929 2.14264C31.4001 2.03683 31.7985 1.95748 31.9882 1.90457C32.0262 1.90457 32.14 1.85167 32.3297 1.74586C32.5574 1.64005 32.7851 1.53424 33.0128 1.42843C33.2784 1.26971 33.5061 1.13745 33.6958 1.03164C33.9235 0.872928 34.0752 0.767119 34.1511 0.714214C34.3029 0.608404 34.6065 0.476143 35.0618 0.317428C35.5172 0.105809 35.7638 0 35.8018 0H41.5505C42.0438 0.264524 42.3284 0.687762 42.4043 1.26971C42.4802 1.85167 42.5182 2.40717 42.5182 2.93621C42.5182 3.14783 42.4992 3.43881 42.4612 3.80914C42.4233 4.12657 42.4043 4.33819 42.4043 4.444C42.4043 4.54981 42.3284 4.73497 42.1766 4.9995C42.0249 5.21112 41.8541 5.44919 41.6644 5.71371C41.4746 5.92533 41.2849 6.13695 41.0952 6.34857C40.9434 6.50728 40.8296 6.58664 40.7537 6.58664C40.4501 6.74535 39.9568 6.90407 39.2738 7.06278C38.5908 7.2215 37.8698 7.38021 37.1109 7.53892C36.3899 7.64473 35.6879 7.75054 35.0049 7.85635C34.3598 7.96216 33.9045 8.01507 33.6389 8.01507C33.6009 8.01507 33.5061 8.04152 33.3543 8.09442C33.2025 8.09442 33.0128 8.09442 32.7851 8.09442C32.3297 8.09442 31.8175 8.09442 31.2483 8.09442C30.717 8.04152 30.3755 8.01507 30.2237 8.01507C29.6925 8.06797 29.1044 8.20023 28.4593 8.41185C27.8521 8.57057 27.3778 9.02026 27.0363 9.76092C27.0363 10.0254 26.9984 10.4751 26.9225 11.11C26.8466 11.7449 26.7707 12.4326 26.6948 13.1733C26.6189 13.861 26.524 14.5488 26.4102 15.2366C26.3343 15.8714 26.2964 16.2947 26.2964 16.5063C26.2964 16.6121 26.2395 16.9295 26.1256 17.4586C26.0118 17.9347 25.9549 18.1992 25.9549 18.2521C25.9169 18.4108 25.879 18.596 25.841 18.8076C25.8031 19.0193 25.7841 19.3102 25.7841 19.6806C25.7841 20.8974 25.86 22.0613 26.0118 23.1723C26.2015 24.2833 26.2964 25.5265 26.2964 26.9021C26.2964 28.8595 26.2395 30.7641 26.1256 32.6158C26.0118 34.4145 25.9549 36.2662 25.9549 38.1708C25.9549 38.2766 25.9738 38.4617 26.0118 38.7263C26.0497 38.9379 26.0877 39.2024 26.1256 39.5198C26.1636 39.8373 26.2015 40.1282 26.2395 40.3928C26.2774 40.6573 26.2964 40.8425 26.2964 40.9483C26.2964 41.0541 26.2964 41.3715 26.2964 41.9006C26.3343 42.3767 26.3533 42.9322 26.3533 43.5671C26.3533 44.2019 26.3533 44.8897 26.3533 45.6303C26.3533 46.371 26.3343 47.0852 26.2964 47.773C26.2964 48.4607 26.2964 49.0691 26.2964 49.5982C26.2964 50.1272 26.2964 50.4976 26.2964 50.7092C26.2964 50.7092 26.3153 50.8415 26.3533 51.106C26.3912 51.3176 26.4292 51.5557 26.4671 51.8202C26.5051 52.0318 26.543 52.2699 26.581 52.5344C26.6189 52.746 26.6379 52.8518 26.6379 52.8518C26.6379 53.0635 26.6569 53.4602 26.6948 54.0422C26.7327 54.6241 26.7707 55.259 26.8086 55.9468C26.8845 56.5816 26.9414 57.2165 26.9794 57.8513C27.0173 58.4333 27.0363 58.883 27.0363 59.2004L27.1501 59.5178C27.226 59.7294 27.264 59.8882 27.264 59.994C27.264 63.2741 27.1501 66.5542 26.9225 69.8343C26.6948 73.1143 26.4861 76.4209 26.2964 79.7539C26.2964 79.9126 26.3153 80.2036 26.3533 80.6268C26.3912 80.9972 26.4292 81.4204 26.4671 81.8965C26.5051 82.3198 26.543 82.743 26.581 83.1662C26.6189 83.5895 26.6379 83.8805 26.6379 84.0392C26.6758 84.4624 26.7138 85.1766 26.7517 86.1818C26.8276 87.1341 26.8845 88.1657 26.9225 89.2767C26.9604 90.3877 26.9794 91.4458 26.9794 92.451C27.0173 93.4033 27.0363 94.0646 27.0363 94.435C27.1122 94.5937 27.1501 95.0169 27.1501 95.7047C27.1501 96.3395 27.1501 97.0802 27.1501 97.9267C27.1501 98.7202 27.1312 99.5403 27.0932 100.387C27.0932 101.233 27.0932 102.053 27.0932 102.847C27.0932 103.587 27.0743 104.249 27.0363 104.831C27.0363 105.36 27.0363 105.704 27.0363 105.862C27.0743 106.127 27.1122 106.497 27.1501 106.973C27.226 107.45 27.3019 107.926 27.3778 108.402C27.4537 108.878 27.5676 109.328 27.7193 109.751C27.9091 110.121 28.1557 110.386 28.4593 110.544C28.6111 110.544 28.9146 110.571 29.37 110.624C29.8253 110.677 30.2996 110.73 30.7929 110.783C31.3242 110.783 31.8175 110.809 32.2728 110.862C32.7282 110.915 33.0317 110.941 33.1835 110.941C33.3353 110.941 33.5819 110.994 33.9235 111.1C34.265 111.206 34.4737 111.285 34.5496 111.338C34.967 111.338 35.6879 111.338 36.7125 111.338C37.7749 111.285 38.9513 111.259 40.2414 111.259C41.4557 111.259 42.594 111.285 43.6565 111.338C44.719 111.338 45.4589 111.338 45.8764 111.338C45.9143 111.338 46.0471 111.364 46.2748 111.417C46.5404 111.47 46.825 111.55 47.1286 111.655C47.4321 111.708 47.7167 111.788 47.9823 111.894C48.2859 111.946 48.4756 111.999 48.5515 112.052C50.1832 112.158 51.8718 112.37 53.6173 112.687C55.4007 113.005 57.1462 113.163 58.8538 113.163C59.3471 113.163 59.7265 113.137 59.9922 113.084C60.2957 112.978 60.7131 112.819 61.2444 112.608C62.1171 111.973 62.9709 111.338 63.8057 110.703C64.6405 110.015 65.4943 109.354 66.367 108.719C66.5947 108.349 66.8034 108.058 66.9931 107.846C67.1829 107.635 67.3726 107.45 67.5623 107.291C67.752 107.132 67.9418 106.947 68.1315 106.735C68.3592 106.524 68.6248 106.233 68.9284 105.862C70.0288 104.54 70.9964 103.058 71.8312 101.418C72.704 99.7783 73.5388 98.1118 74.3356 96.4189C75.1325 94.673 75.9293 92.9536 76.7262 91.2607C77.5231 89.5148 78.4338 87.9277 79.4583 86.4992C79.4583 86.3934 79.5532 86.3405 79.7429 86.3405H79.7998C79.7998 86.3405 79.8757 86.3934 80.0275 86.4992L80.1413 86.9754C80.1793 87.0812 80.2172 87.187 80.2552 87.2928C80.2931 87.3986 80.3121 87.5044 80.3121 87.6102C80.35 87.769 80.4069 88.1657 80.4828 88.8006C80.5587 89.3826 80.6346 90.0439 80.7105 90.7845C80.7864 91.5252 80.8623 92.2394 80.9382 92.9272C81.0141 93.6149 81.071 94.1175 81.1089 94.435V95.546C81.1089 95.8105 81.071 96.4189 80.9951 97.3712C80.9192 98.2705 80.8243 99.2757 80.7105 100.387C80.6346 101.498 80.5587 102.556 80.4828 103.561C80.4069 104.513 80.35 105.148 80.3121 105.466C80.3121 105.624 80.2931 106.048 80.2552 106.735C80.2172 107.423 80.1793 108.19 80.1413 109.037C80.1413 109.83 80.1223 110.597 80.0844 111.338C80.0465 112.026 80.0275 112.449 80.0275 112.608C79.8378 114.301 79.4773 115.65 78.946 116.655C78.4148 117.607 77.599 118.083 76.4985 118.083C76.157 117.978 75.5499 117.925 74.6771 117.925C73.8044 117.925 72.8747 117.925 71.8881 117.925C70.9015 117.925 69.9719 117.925 69.0991 117.925C68.2264 117.925 67.6382 117.978 67.3346 118.083C67.2588 118.083 67.107 118.083 66.8793 118.083C66.6896 118.136 66.4619 118.189 66.1963 118.242C65.9307 118.295 65.684 118.321 65.4563 118.321C65.2666 118.374 65.1338 118.427 65.0579 118.48H53.3327C53.0671 118.533 52.384 118.586 51.2836 118.639C50.2211 118.745 49.0828 118.824 47.8685 118.877C46.6542 118.983 45.4969 119.062 44.3965 119.115C43.334 119.168 42.6699 119.194 42.4043 119.194H41.949C41.7213 119.141 41.1331 119.062 40.1845 118.956C39.2738 118.85 38.2682 118.718 37.1678 118.56C36.1053 118.454 35.1187 118.348 34.208 118.242C33.2974 118.136 32.7282 118.083 32.5005 118.083H28.4593C28.3834 118.083 28.1557 118.03 27.7763 117.925C27.3968 117.766 27.1501 117.687 27.0363 117.687C27.0363 117.687 26.9414 117.713 26.7517 117.766C26.5999 117.819 26.4292 117.872 26.2395 117.925C26.0497 117.925 25.86 117.951 25.6703 118.004C25.5185 118.057 25.4236 118.083 25.3857 118.083H22.7105C19.7507 118.189 16.772 118.401 13.7743 118.718C10.8145 119.036 7.81681 119.194 4.78116 119.194H2.04907C1.97318 119.194 1.87831 119.168 1.76448 119.115C1.68858 119.062 1.47988 118.85 1.13837 118.48C1.06248 118.374 0.986588 118.136 0.910697 117.766C0.872751 117.396 0.853778 117.052 0.853778 116.734C0.853778 116.152 0.92967 115.65 1.08145 115.227C1.27118 114.75 1.51783 114.459 1.82139 114.354C1.89728 114.301 2.04907 114.195 2.27674 114.036C2.50442 113.825 2.6562 113.666 2.73209 113.56C3.491 113.084 4.38273 112.846 5.40726 112.846C6.46974 112.846 7.53222 112.819 8.5947 112.766C9.65718 112.661 10.6438 112.423 11.5545 112.052C12.4652 111.629 13.1672 110.809 13.6605 109.592C13.6984 109.381 13.7363 108.984 13.7743 108.402C13.8122 107.767 13.8502 107.132 13.8881 106.497C13.9261 105.809 13.964 105.201 14.002 104.672C14.0399 104.09 14.0589 103.72 14.0589 103.561C14.0589 103.402 13.983 103.058 13.8312 102.529C13.7174 101.947 13.6605 101.604 13.6605 101.498V97.3712L13.4897 95.546C13.4518 95.4401 13.4328 95.3343 13.4328 95.2285C13.3948 95.1227 13.3759 95.0169 13.3759 94.9111C13.3759 94.0646 13.4138 93.3504 13.4897 92.7685C13.6035 92.1865 13.6605 91.5252 13.6605 90.7845V89.5148C13.6605 89.3032 13.6225 88.9593 13.5466 88.4832C13.5087 88.007 13.4897 87.7161 13.4897 87.6102C13.4897 87.4515 13.5087 87.0547 13.5466 86.4199C13.6225 85.785 13.6605 85.3618 13.6605 85.1502V79.7539C13.6605 79.4894 13.7363 79.0132 13.8881 78.3255C14.0399 77.6377 14.0968 77.1616 14.0589 76.897C13.983 76.6325 13.9071 75.8918 13.8312 74.675C13.7933 73.4582 13.7363 71.5008 13.6605 68.8026V63.327C13.7363 60.6288 13.7933 58.6978 13.8312 57.5339C13.9071 56.37 13.983 55.6822 14.0589 55.4706V55.0738C14.0589 53.0635 13.983 51.0531 13.8312 49.0427C13.7174 47.0323 13.6605 45.0219 13.6605 43.0116C13.6605 42.6412 13.6415 42.2709 13.6035 41.9006C13.5656 41.5302 13.5466 41.1599 13.5466 40.7896C13.5466 40.3134 13.6225 39.6521 13.7743 38.8056C13.964 37.9062 14.0589 36.8746 14.0589 35.7107C14.0589 34.3881 14.0399 33.039 14.002 31.6635C13.964 30.2351 13.945 28.8331 13.945 27.4576C13.945 26.2407 13.964 25.0504 14.002 23.8865C14.0399 22.6697 14.0589 21.4529 14.0589 20.2361C13.8692 19.6541 13.7363 18.9663 13.6605 18.1728C13.6225 17.3792 13.5656 16.6121 13.4897 15.8714C13.4518 15.0778 13.3759 14.3636 13.262 13.7288C13.1861 13.041 12.9964 12.5384 12.6928 12.221C12.1616 11.639 11.3837 11.2687 10.3592 11.11C9.37259 10.8984 8.27216 10.7132 7.0579 10.5545C6.03337 10.4487 4.98986 10.3693 3.92738 10.3164C2.90285 10.2106 2.04907 9.94609 1.36605 9.52285C0.455348 9.04671 0 8.06797 0 6.58664Z" fill="#369EA5"/>
<path d="M90.159 11.11C90.159 9.94609 90.3108 8.83509 90.6143 7.777C90.9558 6.7189 91.4112 5.79307 91.9804 4.9995C92.5496 4.20593 93.2136 3.57107 93.9725 3.09493C94.7694 2.61878 95.6042 2.38071 96.4769 2.38071C97.0461 2.38071 97.5963 2.56588 98.1276 2.93621C98.6588 3.30655 99.1521 3.78269 99.6075 4.36464C100.101 4.94659 100.537 5.58145 100.917 6.26921C101.334 6.90407 101.694 7.48602 101.998 8.01507C102.264 8.27959 102.415 8.67638 102.453 9.20542C102.491 9.73447 102.51 10.29 102.51 10.8719C102.51 12.4591 102.283 13.8081 101.827 14.9191C101.372 15.9772 100.765 16.8766 100.006 17.6173C99.2849 18.305 98.4501 18.8341 97.5015 19.2044C96.5528 19.5748 95.5852 19.8128 94.5986 19.9186C93.2705 18.9663 92.1891 17.8024 91.3543 16.4269C90.5574 15.0514 90.159 13.2791 90.159 11.11ZM85.947 115.227C85.947 113.957 86.1937 113.137 86.6869 112.766C87.1802 112.396 87.7874 112.158 88.5083 112.052C89.2293 111.946 89.9882 111.867 90.7851 111.814C91.6199 111.708 92.3409 111.285 92.948 110.544C92.948 110.227 92.967 109.619 93.0049 108.719C93.0429 107.82 93.0618 106.868 93.0618 105.862C93.0998 104.804 93.1377 103.826 93.1757 102.926C93.2136 102.027 93.2326 101.392 93.2326 101.022V91.4194C93.2326 91.1549 93.2326 90.5729 93.2326 89.6735C93.2705 88.7741 93.3085 87.7425 93.3464 86.5786C93.4223 85.4147 93.4792 84.1714 93.5172 82.8488C93.5551 81.5262 93.5931 80.2829 93.631 79.119C93.7069 77.9551 93.7448 76.9499 93.7448 76.1035C93.7828 75.257 93.8018 74.7015 93.8018 74.437V64.5173C93.8018 64.5173 93.8207 64.4115 93.8587 64.1999C93.8966 63.9354 93.9346 63.6973 93.9725 63.4857C94.0484 63.2212 94.1053 62.9831 94.1433 62.7715C94.1812 62.5069 94.2002 62.3747 94.2002 62.3747L94.314 62.0573C94.314 61.9514 94.2951 61.8721 94.2571 61.8192C94.2571 61.7663 94.2571 61.7134 94.2571 61.6605C94.2192 61.6076 94.2002 61.5547 94.2002 61.5018C94.2002 61.5018 94.1433 61.4224 94.0294 61.2637C93.9156 61.0521 93.7828 60.8404 93.631 60.6288C93.4792 60.3643 93.3274 60.1262 93.1757 59.9146C93.0618 59.6501 92.9859 59.4649 92.948 59.3591C92.5685 58.6184 91.9804 58.0894 91.1835 57.772C90.4246 57.4016 89.6467 57.0578 88.8499 56.7403C88.0909 56.4229 87.4079 56.0526 86.8008 55.6293C86.2316 55.1532 85.947 54.4654 85.947 53.566C85.947 52.9841 86.1557 52.508 86.5731 52.1376C87.0285 51.7144 87.4079 51.4499 87.7115 51.344C87.8253 51.2911 88.1099 51.2118 88.5653 51.106C89.0206 51.0002 89.5139 50.8944 90.0451 50.7885C90.6143 50.6827 91.1266 50.5769 91.5819 50.4711C92.0373 50.3124 92.3219 50.2066 92.4357 50.1537C92.4737 50.1008 92.6065 50.0214 92.8342 49.9156C93.0618 49.8098 93.2895 49.704 93.5172 49.5982C93.7828 49.4395 94.0105 49.3072 94.2002 49.2014C94.4279 49.0956 94.5607 49.0427 94.5986 49.0427C94.9401 48.884 95.5093 48.6988 96.3062 48.4872C97.103 48.2756 97.7291 48.011 98.1845 47.6936C98.564 47.4291 98.8865 47.1646 99.1521 46.9C99.4557 46.5826 99.7403 46.3181 100.006 46.1065C100.309 45.842 100.613 45.6568 100.917 45.551C101.258 45.3923 101.657 45.3129 102.112 45.3129C102.795 45.3129 103.307 45.7626 103.649 46.662C103.99 47.5614 104.161 48.4872 104.161 49.4395C104.161 50.9737 104.066 52.5344 103.876 54.1215C103.725 55.6558 103.649 57.2165 103.649 58.8036C103.649 60.1262 103.668 61.2901 103.706 62.2953C103.744 63.2476 103.895 64.4909 104.161 66.0251V98.4822C104.199 98.6409 104.237 98.8525 104.275 99.117C104.351 99.3815 104.389 99.6725 104.389 99.99C104.427 100.307 104.465 100.625 104.502 100.942C104.54 101.207 104.597 101.392 104.673 101.498V102.291C104.673 102.397 104.654 102.582 104.616 102.847C104.578 103.111 104.54 103.429 104.502 103.799C104.465 104.117 104.408 104.434 104.332 104.751C104.256 105.016 104.199 105.201 104.161 105.307V106.021C104.161 106.18 104.199 106.55 104.275 107.132C104.351 107.714 104.446 108.349 104.559 109.037C104.711 109.724 104.863 110.359 105.015 110.941C105.167 111.47 105.318 111.788 105.47 111.894C105.508 111.999 105.603 112.052 105.755 112.052C105.906 112.052 106.039 112.052 106.153 112.052C106.381 112.052 106.589 112.026 106.779 111.973C107.007 111.92 107.159 111.894 107.235 111.894C107.272 111.999 107.462 112.132 107.804 112.29C108.183 112.396 108.411 112.449 108.487 112.449C108.601 112.555 108.828 112.634 109.17 112.687C109.511 112.74 109.853 112.793 110.194 112.846C110.574 112.846 110.934 112.899 111.276 113.005C111.617 113.057 111.845 113.11 111.959 113.163C112.376 113.269 112.642 113.639 112.756 114.274C112.869 114.909 112.926 115.438 112.926 115.861C112.926 116.708 112.68 117.343 112.186 117.766C111.693 118.136 111.181 118.374 110.65 118.48H101.087C101.011 118.48 100.822 118.454 100.518 118.401C100.253 118.348 99.949 118.269 99.6075 118.163C99.3039 118.11 99.0003 118.057 98.6968 118.004C98.4311 117.898 98.2604 117.845 98.1845 117.845H97.6722C96.6477 117.845 95.5662 117.951 94.4279 118.163C93.3274 118.374 92.208 118.48 91.0697 118.48H88.1099C88.034 118.374 87.7684 118.189 87.3131 117.925C86.8957 117.66 86.6111 117.475 86.4593 117.369C86.2695 117.158 86.1367 116.946 86.0608 116.734C85.985 116.47 85.947 116.232 85.947 116.02V115.227Z" fill="#369EA5"/>
<path d="M117.366 116.972C117.366 116.39 117.385 115.835 117.423 115.306C117.499 114.777 117.689 114.327 117.992 113.957C118.144 113.957 118.447 113.93 118.903 113.877C119.358 113.772 119.814 113.692 120.269 113.639C120.762 113.534 121.218 113.428 121.635 113.322C122.09 113.216 122.413 113.163 122.603 113.163C123.475 113.005 124.082 112.502 124.424 111.655C124.803 110.809 125.05 109.804 125.164 108.64C125.278 107.476 125.354 106.286 125.392 105.069C125.43 103.799 125.581 102.688 125.847 101.736C125.885 101.048 125.904 99.8841 125.904 98.2441C125.942 96.5511 125.98 94.7788 126.018 92.9272C126.056 91.0755 126.075 89.3296 126.075 87.6896C126.113 85.9966 126.132 84.8327 126.132 84.1979C126.132 84.0392 126.132 83.6424 126.132 83.0075C126.169 82.3198 126.188 81.5527 126.188 80.7062C126.188 79.8597 126.188 79.0132 126.188 78.1667C126.226 77.2674 126.245 76.5267 126.245 75.9447C126.245 75.5215 126.226 74.9396 126.188 74.1989C126.188 73.4053 126.188 72.6382 126.188 71.8975C126.188 71.1569 126.169 70.4956 126.132 69.9136C126.132 69.2788 126.132 68.9084 126.132 68.8026C126.132 68.6439 126.113 68.3265 126.075 67.8503C126.075 67.3742 126.056 66.8716 126.018 66.3425C125.98 65.8135 125.942 65.3373 125.904 64.9141C125.904 64.4909 125.885 64.2263 125.847 64.1205C125.809 63.9089 125.657 63.6179 125.392 63.2476C125.126 62.8773 124.917 62.5863 124.765 62.3747C124.69 61.9514 124.443 61.4489 124.026 60.8669C123.608 60.232 123.305 59.8617 123.115 59.7559C122.735 59.3856 122.299 59.2004 121.806 59.2004C121.312 59.1475 120.819 59.0946 120.326 59.0417C119.833 58.9888 119.396 58.8301 119.017 58.5655C118.637 58.301 118.391 57.7191 118.277 56.8197C118.277 56.7139 118.334 56.5287 118.447 56.2642C118.599 55.9468 118.713 55.7351 118.789 55.6293C118.827 55.4706 118.922 55.2854 119.074 55.0738C119.263 54.8093 119.453 54.5448 119.643 54.2803C119.833 54.0157 120.003 53.8041 120.155 53.6454C120.345 53.4338 120.478 53.3015 120.553 53.2486C120.591 53.1428 120.8 52.9047 121.18 52.5344C121.597 52.1641 122.09 51.7673 122.659 51.344C123.229 50.8679 123.798 50.4182 124.367 49.995C124.974 49.5188 125.467 49.1485 125.847 48.884C126.454 48.4078 127.137 48.0375 127.896 47.773C128.655 47.4555 129.395 47.0588 130.116 46.5826C130.761 46.0007 131.292 45.4452 131.71 44.9161C132.165 44.3871 132.772 44.1226 133.531 44.1226C134.252 44.1226 134.783 44.5193 135.125 45.3129C135.466 46.0536 135.713 46.953 135.865 48.011C136.016 49.0162 136.111 50.0743 136.149 51.1853C136.187 52.2434 136.244 53.1164 136.32 53.8041C136.32 54.0157 136.32 54.3861 136.32 54.9151C136.358 55.3913 136.377 55.9203 136.377 56.5023C136.415 57.0842 136.453 57.6397 136.491 58.1688C136.529 58.6978 136.567 59.0946 136.605 59.3591C136.794 59.7824 136.984 60.0998 137.174 60.3114C137.363 60.4701 137.629 60.5495 137.971 60.5495H138.483C138.559 60.3908 138.692 60.1791 138.881 59.9146C139.071 59.5972 139.28 59.2798 139.507 58.9623C139.735 58.6449 139.944 58.3539 140.133 58.0894C140.323 57.772 140.456 57.5339 140.532 57.3752C140.532 57.3223 140.608 57.1371 140.76 56.8197C140.949 56.5023 141.044 56.2906 141.044 56.1848C141.386 55.4442 141.784 54.968 142.239 54.7564C142.733 54.4919 143.188 53.9893 143.605 53.2486C144.478 51.6086 145.408 50.286 146.395 49.2808C147.381 48.2227 148.519 47.0852 149.81 45.8684C150.644 44.969 151.555 44.4664 152.542 44.3606C153.528 44.2019 154.572 44.1226 155.672 44.1226C156.583 44.1226 157.399 44.2284 158.12 44.44C158.879 44.6516 159.581 44.969 160.226 45.3923C160.871 45.7626 161.497 46.2387 162.104 46.8207C162.749 47.4026 163.394 48.0904 164.039 48.884C164.798 49.8363 165.576 50.9208 166.373 52.1376C167.208 53.3544 167.777 54.7035 168.08 56.1848C168.08 56.5552 168.099 57.0842 168.137 57.772C168.213 58.4068 168.289 59.0417 168.365 59.6765C168.479 60.3114 168.574 60.8934 168.65 61.4224C168.726 61.9514 168.782 62.2689 168.82 62.3747V68.4058C168.82 68.4587 168.839 68.6703 168.877 69.0407C168.915 69.3581 168.953 69.7284 168.991 70.1517C169.067 70.522 169.124 70.8923 169.162 71.2627C169.238 71.633 169.276 71.8711 169.276 71.9769V73.1673C169.276 73.326 169.238 73.6963 169.162 74.2782C169.124 74.8602 169.067 75.4951 168.991 76.1828C168.953 76.8706 168.915 77.5319 168.877 78.1667C168.839 78.7487 168.82 79.1455 168.82 79.3571V94.435C168.82 94.5408 168.801 94.7788 168.763 95.1492C168.726 95.5195 168.669 95.9163 168.593 96.3395C168.555 96.7099 168.517 97.0802 168.479 97.4505C168.441 97.768 168.422 97.9531 168.422 98.006V106.259C168.422 107 168.46 107.873 168.536 108.878C168.612 109.83 168.858 110.756 169.276 111.655C169.693 111.55 170.092 111.47 170.471 111.417C170.888 111.364 171.306 111.338 171.723 111.338C172.141 111.338 172.539 111.364 172.919 111.417C173.298 111.47 173.658 111.55 174 111.655C174.114 111.655 174.266 111.841 174.455 112.211C174.683 112.528 174.835 112.793 174.911 113.005C174.911 113.11 174.93 113.243 174.968 113.401C174.968 113.507 174.968 113.613 174.968 113.719C175.006 113.825 175.025 113.904 175.025 113.957C175.025 114.433 174.93 114.936 174.74 115.465C174.588 115.941 174.379 116.39 174.114 116.814C173.886 117.237 173.602 117.581 173.26 117.845C172.956 118.11 172.653 118.242 172.349 118.242H171.951C171.875 118.189 171.685 118.11 171.382 118.004C171.078 117.898 170.756 117.819 170.414 117.766C170.073 117.713 169.731 117.66 169.39 117.607C169.086 117.554 168.896 117.528 168.82 117.528C168.707 117.528 168.403 117.554 167.91 117.607C167.454 117.66 166.942 117.713 166.373 117.766C165.804 117.819 165.254 117.898 164.722 118.004C164.191 118.11 163.812 118.189 163.584 118.242C163.508 118.242 163.299 118.295 162.958 118.401C162.616 118.56 162.389 118.639 162.275 118.639H155.786C155.672 118.692 155.426 118.745 155.046 118.798C154.667 118.85 154.249 118.903 153.794 118.956C153.377 119.009 152.978 119.062 152.599 119.115C152.219 119.168 151.973 119.194 151.859 119.194H151.176C150.986 119.194 150.796 119.036 150.606 118.718C150.417 118.401 150.246 118.03 150.094 117.607C149.942 117.184 149.81 116.734 149.696 116.258C149.62 115.782 149.582 115.385 149.582 115.068C149.582 114.38 149.904 113.877 150.55 113.56C151.233 113.243 151.991 113.005 152.826 112.846C153.699 112.687 154.534 112.555 155.331 112.449C156.166 112.29 156.754 112.052 157.095 111.735C157.209 111.629 157.342 111.391 157.494 111.021C157.683 110.65 157.873 110.253 158.063 109.83C158.253 109.407 158.404 108.984 158.518 108.561C158.67 108.137 158.784 107.793 158.86 107.529C158.974 107.053 159.049 106.682 159.087 106.418C159.125 106.1 159.163 105.836 159.201 105.624C159.239 105.36 159.258 105.095 159.258 104.831C159.258 104.513 159.258 104.117 159.258 103.64V98.006C159.258 97.8473 159.258 97.4241 159.258 96.7363C159.258 96.0485 159.258 95.3079 159.258 94.5143C159.296 93.6678 159.315 92.9007 159.315 92.213C159.315 91.4723 159.315 91.0226 159.315 90.8639C159.277 90.2819 159.239 89.3826 159.201 88.1657C159.201 86.9489 159.182 85.5999 159.144 84.1185C159.106 82.5843 159.068 80.9972 159.03 79.3571C159.03 77.6642 159.011 76.077 158.974 74.5957C158.974 73.0614 158.974 71.7124 158.974 70.5485C158.974 69.3317 158.974 68.4323 158.974 67.8503C158.898 66.5277 158.651 65.1522 158.234 63.7238C157.854 62.2953 157.323 60.9992 156.64 59.8353C155.957 58.6184 155.179 57.6397 154.306 56.899C153.433 56.1055 152.485 55.6822 151.46 55.6293C151.043 55.5764 150.569 55.6029 150.037 55.7087C149.506 55.8145 148.956 55.9468 148.387 56.1055C147.817 56.2642 147.267 56.4758 146.736 56.7403C146.205 56.9519 145.711 57.1636 145.256 57.3752C145.028 57.5339 144.668 57.772 144.175 58.0894C143.719 58.4068 143.264 58.7507 142.809 59.121C142.353 59.4385 141.936 59.7294 141.556 59.994C141.215 60.2585 141.044 60.4437 141.044 60.5495C140.93 60.6553 140.703 60.9992 140.361 61.5811C140.058 62.1631 139.735 62.7979 139.394 63.4857C139.09 64.1734 138.786 64.8083 138.483 65.3903C138.217 65.9722 138.046 66.3425 137.971 66.5013C137.288 67.8768 136.889 69.3052 136.775 70.7865C136.699 72.2679 136.548 73.855 136.32 75.548C136.244 75.7596 136.149 76.1828 136.035 76.8177C135.959 77.4525 135.921 77.9022 135.921 78.1667V82.9282C135.921 83.0869 135.884 83.4572 135.808 84.0392C135.732 84.6211 135.656 85.256 135.58 85.9437C135.504 86.6315 135.428 87.2928 135.352 87.9277C135.276 88.5096 135.238 88.9064 135.238 89.118V97.2125C135.238 98.6409 135.238 99.937 135.238 101.101C135.238 102.265 135.257 103.402 135.295 104.513C135.371 105.571 135.447 106.682 135.523 107.846C135.599 108.957 135.732 110.227 135.921 111.655C136.149 112.237 136.472 112.608 136.889 112.766C137.344 112.925 137.838 113.005 138.369 113.005C138.673 113.005 138.976 112.978 139.28 112.925C139.583 112.872 139.906 112.846 140.247 112.846C140.779 112.846 141.253 113.243 141.67 114.036C142.088 114.777 142.296 115.57 142.296 116.417C142.296 117.369 142.031 118.004 141.5 118.321C140.968 118.639 140.38 118.798 139.735 118.798C139.431 118.798 139.147 118.771 138.881 118.718C138.654 118.665 138.445 118.639 138.255 118.639C137.079 118.639 135.903 118.533 134.726 118.321C133.55 118.163 132.374 118.083 131.197 118.083C129.717 118.083 128.2 118.163 126.644 118.321C125.088 118.533 123.513 118.639 121.92 118.639C121.654 118.639 121.293 118.665 120.838 118.718C120.383 118.824 119.965 118.877 119.586 118.877C118.979 118.877 118.447 118.745 117.992 118.48C117.575 118.216 117.366 117.713 117.366 116.972Z" fill="#369EA5"/>
<path d="M209.46 55.788C209.46 54.3596 209.252 53.328 208.834 52.6931C208.417 52.0583 207.942 51.5821 207.411 51.2647C206.918 50.9473 206.463 50.6563 206.045 50.3918C205.628 50.1272 205.419 49.6775 205.419 49.0427C205.419 48.5665 205.514 48.1962 205.704 47.9317C205.931 47.6143 206.197 47.3497 206.5 47.1381C206.804 46.9265 207.108 46.7942 207.411 46.7413C207.753 46.6355 208.037 46.5826 208.265 46.5826C208.796 46.5826 209.308 46.6884 209.802 46.9C210.295 47.1117 210.845 47.2175 211.452 47.2175H212.022C213.805 46.7942 215.551 46.3975 217.258 46.0271C218.966 45.6568 220.73 45.4716 222.552 45.4716C223.083 45.4716 223.614 45.551 224.145 45.7097C224.714 45.8684 224.999 46.2387 224.999 46.8207V47.2175C224.809 47.6936 224.639 48.011 224.487 48.1698C224.335 48.3285 224.183 48.4607 224.031 48.5665C223.918 48.6195 223.747 48.6724 223.519 48.7253C223.329 48.7782 223.083 48.884 222.779 49.0427C222.21 49.4659 221.584 49.9156 220.901 50.3918C220.218 50.815 219.516 51.2911 218.795 51.8202C218.074 52.3492 217.372 52.8783 216.689 53.4073C216.044 53.9364 215.475 54.4919 214.981 55.0738C214.905 55.1267 214.754 55.3119 214.526 55.6293C214.336 55.9468 214.128 56.2906 213.9 56.661C213.672 56.9784 213.445 57.3223 213.217 57.6926C213.027 58.01 212.894 58.1952 212.818 58.2481C212.743 58.2481 212.515 58.4333 212.135 58.8036C211.794 59.1739 211.585 59.3856 211.509 59.4385C211.471 59.5972 211.339 59.8617 211.111 60.232C210.883 60.5495 210.693 60.8934 210.542 61.2637C210.542 61.3695 210.523 61.4224 210.485 61.4224C210.447 61.4224 210.428 61.4489 210.428 61.5018C210.276 61.8192 210.01 62.3218 209.631 63.0095C209.252 63.6444 208.834 64.3057 208.379 64.9935C207.961 65.6812 207.544 66.3425 207.127 66.9774C206.747 67.6123 206.444 68.0355 206.216 68.2471C205.95 68.5116 205.704 68.8291 205.476 69.1994C205.248 69.5168 205.04 69.8343 204.85 70.1517C204.546 70.7336 204.281 71.3156 204.053 71.8975C203.863 72.4795 203.768 73.1937 203.768 74.0402C203.768 74.0402 203.825 74.1195 203.939 74.2782C204.053 74.437 204.186 74.6221 204.338 74.8337C204.489 75.0454 204.622 75.2305 204.736 75.3892C204.888 75.548 204.983 75.6273 205.021 75.6273C205.059 75.7331 205.172 75.8918 205.362 76.1035C205.552 76.2622 205.742 76.4473 205.931 76.659C206.121 76.8177 206.292 76.9764 206.444 77.1351C206.595 77.2938 206.69 77.3996 206.728 77.4525C206.728 77.5583 206.842 77.8493 207.07 78.3255C207.335 78.7487 207.506 79.0926 207.582 79.3571C207.923 80.2036 208.322 80.8384 208.777 81.2617C209.271 81.6849 209.764 82.2404 210.257 82.9282C210.295 83.034 210.371 83.2192 210.485 83.4837C210.637 83.6953 210.769 83.9334 210.883 84.1979C211.035 84.4624 211.168 84.7269 211.282 84.9915C211.433 85.2031 211.509 85.3353 211.509 85.3882C211.623 85.5999 211.813 85.9173 212.079 86.3405C212.344 86.7638 212.61 87.2135 212.875 87.6896C213.141 88.1128 213.388 88.5096 213.615 88.88C213.843 89.2503 213.995 89.5148 214.071 89.6735L216.234 92.6891C216.347 92.7949 216.556 93.1652 216.86 93.8001C217.201 94.435 217.562 95.1492 217.941 95.9427C218.359 96.7363 218.719 97.477 219.023 98.1647C219.364 98.8525 219.592 99.3022 219.706 99.5138C219.744 99.5667 219.838 99.699 219.99 99.9106C220.18 100.069 220.37 100.281 220.559 100.545C220.787 100.757 220.977 100.995 221.129 101.26C221.28 101.471 221.356 101.63 221.356 101.736C221.774 102.371 222.172 103.085 222.552 103.878C222.931 104.672 223.329 105.386 223.747 106.021C223.823 106.074 224.031 106.286 224.373 106.656C224.752 106.973 224.961 107.132 224.999 107.132C225.037 107.185 225.189 107.37 225.454 107.688C225.72 107.952 225.986 108.27 226.251 108.64C226.555 108.957 226.82 109.275 227.048 109.592C227.314 109.91 227.484 110.121 227.56 110.227C227.636 110.333 227.845 110.571 228.186 110.941C228.528 111.259 228.888 111.629 229.268 112.052C229.685 112.423 230.065 112.793 230.406 113.163C230.748 113.481 230.956 113.692 231.032 113.798C231.336 114.168 231.526 114.459 231.602 114.671C231.677 114.883 231.715 115.332 231.715 116.02C231.715 116.761 231.602 117.422 231.374 118.004C231.146 118.533 230.71 118.798 230.065 118.798C228.357 118.798 226.65 118.665 224.942 118.401C223.272 118.189 221.622 118.083 219.99 118.083H216.86C215.797 118.083 214.773 118.083 213.786 118.083C212.799 118.136 211.756 118.269 210.656 118.48C210.124 118.374 209.669 118.083 209.29 117.607C208.948 117.078 208.777 116.364 208.777 115.465C208.777 115.253 208.796 115.068 208.834 114.909C208.834 114.75 208.853 114.618 208.891 114.512C209.043 114.406 209.327 114.195 209.745 113.877C210.162 113.56 210.466 113.348 210.656 113.243C210.769 113.243 210.959 113.216 211.225 113.163C211.528 113.057 211.851 112.978 212.192 112.925C212.534 112.819 212.856 112.74 213.16 112.687C213.464 112.634 213.672 112.608 213.786 112.608C213.786 112.502 213.824 112.317 213.9 112.052C214.014 111.788 214.071 111.603 214.071 111.497C214.071 111.338 214.052 111.1 214.014 110.783C213.976 110.412 213.938 110.042 213.9 109.672C213.9 109.248 213.881 108.878 213.843 108.561C213.805 108.19 213.786 107.926 213.786 107.767C213.558 107.555 213.217 107.185 212.762 106.656C212.344 106.074 211.889 105.466 211.395 104.831C210.94 104.196 210.504 103.587 210.086 103.006C209.707 102.424 209.441 102 209.29 101.736C209.252 101.63 209.157 101.392 209.005 101.022C208.853 100.651 208.682 100.254 208.493 99.8312C208.303 99.408 208.113 99.0377 207.923 98.7202C207.772 98.3499 207.658 98.1118 207.582 98.006C206.709 96.5776 205.798 95.2285 204.85 93.9588C203.939 92.6891 203.104 91.2607 202.345 89.6735C202.194 89.3561 201.966 88.9593 201.662 88.4832C201.359 87.9541 201.017 87.478 200.638 87.0547C200.258 86.5786 199.879 86.1818 199.5 85.8644C199.158 85.547 198.873 85.3882 198.646 85.3882H198.418C198.19 86.0231 197.963 86.7373 197.735 87.5309C197.507 88.2716 197.337 88.9858 197.223 89.6735C197.223 90.0968 197.204 90.8374 197.166 91.8955C197.128 92.9007 197.09 93.9853 197.052 95.1492C197.014 96.3131 196.976 97.3976 196.938 98.4028C196.9 99.408 196.881 100.122 196.881 100.545V103.561C196.881 103.614 196.9 103.773 196.938 104.037C196.976 104.249 197.014 104.487 197.052 104.751C197.09 105.016 197.128 105.28 197.166 105.545C197.204 105.809 197.223 105.968 197.223 106.021C197.223 106.127 197.223 106.391 197.223 106.815C197.261 107.238 197.299 107.688 197.337 108.164C197.375 108.64 197.412 109.09 197.45 109.513C197.488 109.883 197.526 110.121 197.564 110.227C197.678 110.597 197.944 111.021 198.361 111.497C198.779 111.973 199.215 112.449 199.67 112.925C200.164 113.401 200.581 113.877 200.922 114.354C201.302 114.777 201.492 115.094 201.492 115.306V115.782C200.998 116.999 200.353 117.792 199.556 118.163C198.76 118.586 197.887 118.798 196.938 118.798C196.179 118.798 195.401 118.745 194.605 118.639C193.846 118.533 193.125 118.48 192.442 118.48C192.214 118.586 191.683 118.665 190.848 118.718C190.051 118.824 189.178 118.93 188.23 119.036C187.319 119.141 186.446 119.221 185.611 119.274C184.815 119.327 184.321 119.353 184.132 119.353H183.278C182.519 119.353 181.836 119.141 181.229 118.718C180.622 118.295 180.318 117.634 180.318 116.734V115.782C180.622 115.041 181.077 114.459 181.684 114.036C182.291 113.613 182.898 113.269 183.505 113.005C184.15 112.74 184.72 112.502 185.213 112.29C185.744 112.079 186.086 111.814 186.237 111.497C186.655 110.756 186.921 109.936 187.034 109.037C187.148 108.137 187.205 107.211 187.205 106.259C187.205 105.413 187.186 104.646 187.148 103.958C187.11 103.217 187.091 102.476 187.091 101.736C187.129 101.63 187.186 101.392 187.262 101.022C187.338 100.598 187.395 100.149 187.433 99.6725C187.471 99.1964 187.509 98.7467 187.547 98.3235C187.585 97.9002 187.604 97.6357 187.604 97.5299C187.869 93.562 188.04 89.5942 188.116 85.6263C188.23 81.6056 188.306 77.6112 188.343 73.6434C188.381 69.6226 188.438 65.6283 188.514 61.6605C188.59 57.6397 188.742 53.6454 188.97 49.6775C188.97 49.5717 188.989 49.3601 189.026 49.0427C189.064 48.6724 189.102 48.2756 189.14 47.8523C189.216 47.4291 189.273 47.0588 189.311 46.7413C189.349 46.371 189.368 46.1329 189.368 46.0271C189.368 45.9742 189.387 45.5245 189.425 44.678C189.463 43.7787 189.501 42.7735 189.539 41.6625C189.615 40.4986 189.672 39.3082 189.71 38.0914C189.747 36.8746 189.766 35.8959 189.766 35.1552V34.441C189.766 34.3352 189.747 34.0707 189.71 33.6474C189.672 33.1713 189.615 32.6687 189.539 32.1396C189.501 31.6106 189.463 31.108 189.425 30.6318C189.387 30.1557 189.368 29.8383 189.368 29.6796C189.368 29.4679 189.349 29.2299 189.311 28.9653C189.273 28.6479 189.254 28.3834 189.254 28.1718C189.254 27.5898 189.273 27.0872 189.311 26.664C189.349 26.2407 189.368 25.7911 189.368 25.3149C189.368 23.7807 189.292 22.2464 189.14 20.7122C189.026 19.1251 188.685 17.7231 188.116 16.5063C187.926 16.0301 187.433 15.554 186.636 15.0778C185.839 14.5488 185.004 14.0462 184.132 13.5701C183.297 13.041 182.538 12.512 181.855 11.9829C181.172 11.4539 180.83 10.9513 180.83 10.4751C180.83 10.3693 180.849 10.1577 180.887 9.84028C180.963 9.46995 181.039 9.20542 181.115 9.04671C181.418 8.46476 181.893 8.09442 182.538 7.93571C183.221 7.72409 183.752 7.56538 184.132 7.45957C185.042 6.93052 185.953 6.37502 186.864 5.79307C187.774 5.21112 188.685 4.68207 189.596 4.20593C190.544 3.67688 191.493 3.25364 192.442 2.93621C193.428 2.56588 194.415 2.38071 195.401 2.38071C195.553 2.38071 195.781 2.40717 196.084 2.46007C196.426 2.51297 196.767 2.61878 197.109 2.7775C197.45 2.93621 197.754 3.14783 198.02 3.41236C198.285 3.62397 198.418 3.91495 198.418 4.28528V25.3943C198.418 25.5001 198.399 25.7117 198.361 26.0291C198.361 26.2937 198.323 26.6111 198.247 26.9814C198.209 27.2988 198.133 27.6163 198.02 27.9337C197.906 28.1982 197.754 28.4098 197.564 28.5686V36.9804C197.716 37.1391 197.83 37.8269 197.906 39.0437C198.02 40.2076 198.114 41.5302 198.19 43.0116C198.266 44.44 198.323 45.8155 198.361 47.1381C198.399 48.4607 198.418 49.3072 198.418 49.6775V51.5028C198.418 51.5557 198.399 51.7408 198.361 52.0583C198.323 52.3228 198.266 52.6402 198.19 53.0105C198.152 53.328 198.114 53.6454 198.077 53.9628C198.039 54.2803 198.02 54.4654 198.02 54.5183C197.982 54.8887 197.963 55.55 197.963 56.5023C197.963 57.4016 197.963 58.3804 197.963 59.4385C197.963 60.4437 197.963 61.4224 197.963 62.3747C197.963 63.2741 197.982 63.9089 198.02 64.2793C197.982 64.3851 197.906 64.676 197.792 65.1522C197.716 65.6283 197.64 65.9193 197.564 66.0251V66.1838C197.564 66.5013 197.602 66.898 197.678 67.3742C197.754 67.8503 197.83 68.3529 197.906 68.882C198.02 69.3581 198.114 69.8343 198.19 70.3104C198.304 70.7865 198.38 71.1569 198.418 71.4214C198.456 71.633 198.494 72.0298 198.532 72.6118C198.57 73.1937 198.608 73.8021 198.646 74.437C198.722 75.0718 198.779 75.6802 198.816 76.2622C198.892 76.8441 198.968 77.2409 199.044 77.4525C199.044 77.6112 199.082 77.6906 199.158 77.6906H199.329C199.632 77.6906 200.012 77.3203 200.467 76.5796C200.922 75.8389 201.492 74.7544 202.175 73.326C202.858 71.8975 203.674 70.0988 204.622 67.9297C205.609 65.7606 206.785 63.2476 208.151 60.3908C208.341 59.5972 208.606 58.8565 208.948 58.1688C209.29 57.481 209.46 56.6874 209.46 55.788Z" fill="#369EA5"/>
<path d="M336.901 55.6293C337.318 56.4758 337.925 57.0049 338.722 57.2165C339.557 57.4281 340.259 57.5339 340.828 57.5339H341.227C341.303 57.481 341.473 57.4016 341.739 57.2958C342.005 57.1371 342.289 57.0049 342.593 56.899C342.896 56.7932 343.162 56.6874 343.39 56.5816C343.655 56.4758 343.826 56.4229 343.902 56.4229C344.699 56.1055 345.647 55.8674 346.748 55.7087C347.848 55.4971 348.778 55.1003 349.537 54.5183C349.613 54.4125 349.821 54.2009 350.163 53.8835C350.504 53.566 350.884 53.2222 351.301 52.8518C351.757 52.4286 352.174 52.0318 352.553 51.6615C352.971 51.2382 353.274 50.9473 353.464 50.7885C353.54 50.7356 353.692 50.5505 353.92 50.233C354.147 49.8627 354.28 49.6511 354.318 49.5982C354.659 48.8575 355.001 48.0375 355.342 47.1381C355.722 46.2387 356.101 45.4452 356.481 44.7574C356.557 44.5458 356.671 44.3342 356.822 44.1226C357.012 43.8051 357.202 43.5671 357.392 43.4083C357.43 43.4083 357.467 43.2761 357.505 43.0116C357.581 42.747 357.638 42.4296 357.676 42.0593C357.714 41.6889 357.733 41.3451 357.733 41.0276C357.771 40.7102 357.79 40.4986 357.79 40.3928C358.132 38.3295 358.416 36.2926 358.644 34.2823C358.909 32.219 359.042 30.0763 359.042 27.8543V23.4897C358.739 23.1723 358.473 22.8019 358.245 22.3787C358.056 21.9026 357.866 21.4264 357.676 20.9503C357.524 20.4741 357.354 19.998 357.164 19.5218C356.974 18.9928 356.746 18.4902 356.481 18.0141C356.329 17.8024 356.063 17.4057 355.684 16.8237C355.342 16.2418 354.963 15.6333 354.546 14.9985C354.128 14.3636 353.711 13.7817 353.293 13.2526C352.914 12.6707 352.629 12.2474 352.44 11.9829C351.908 11.8242 351.225 11.6655 350.391 11.5068C349.594 11.3481 348.873 11.1364 348.228 10.8719C347.431 10.5016 346.691 10.1048 346.008 9.68157C345.325 9.25833 344.547 9.04671 343.674 9.04671C343.029 9.04671 342.289 9.09961 341.454 9.20542C340.62 9.31123 339.993 9.62866 339.576 10.1577C338.703 11.11 338.058 12.0623 337.641 13.0146C337.223 13.9139 336.92 14.8662 336.73 15.8714C336.578 16.8237 336.483 17.8818 336.446 19.0457C336.446 20.2096 336.427 21.5058 336.389 22.9342C336.389 23.1458 336.37 23.6484 336.332 24.442C336.294 25.1827 336.256 26.0027 336.218 26.9021C336.18 27.7485 336.142 28.5686 336.104 29.3621C336.066 30.1557 336.047 30.6583 336.047 30.8699C336.047 31.5048 336.028 32.4306 335.99 33.6474C335.99 34.8642 335.99 36.1604 335.99 37.5359C335.99 38.9114 335.971 40.2605 335.933 41.5831C335.933 42.9057 335.933 43.9638 335.933 44.7574C335.933 46.5562 335.99 48.302 336.104 49.995C336.218 51.6879 336.483 53.566 336.901 55.6293ZM328.135 118.083C325.897 118.083 323.677 118.163 321.476 118.321C319.275 118.533 317.093 118.639 314.93 118.639C313.64 118.639 312.995 117.819 312.995 116.179C312.995 115.597 313.033 115.041 313.109 114.512C313.223 113.93 313.507 113.481 313.963 113.163C315.291 113.005 316.733 112.793 318.289 112.528C319.844 112.211 321.286 111.603 322.614 110.703C322.88 110.492 323.108 110.095 323.297 109.513C323.525 108.878 323.696 108.19 323.81 107.45C323.961 106.709 324.075 105.995 324.151 105.307C324.227 104.566 324.284 103.984 324.322 103.561V99.8312C324.322 99.6196 324.341 99.3022 324.379 98.879C324.417 98.4028 324.455 97.9002 324.493 97.3712C324.569 96.8421 324.625 96.366 324.663 95.9427C324.701 95.4666 324.72 95.1492 324.72 94.9905C324.72 94.1969 324.72 92.9801 324.72 91.34C324.72 89.6471 324.72 87.769 324.72 85.7057C324.758 83.6424 324.777 81.4733 324.777 79.1984C324.815 76.8706 324.834 74.675 324.834 72.6118C324.872 70.4956 324.891 68.6174 324.891 66.9774C324.891 65.3373 324.891 64.1205 324.891 63.327C324.891 61.8985 324.891 60.1527 324.891 58.0894C324.891 56.0261 324.872 53.857 324.834 51.5821C324.834 49.2543 324.815 46.953 324.777 44.678C324.777 42.3502 324.758 40.2605 324.72 38.4088C324.72 36.5043 324.72 34.9171 324.72 33.6474C324.72 32.3777 324.72 31.637 324.72 31.4254C324.72 30.7377 324.701 29.5737 324.663 27.9337C324.663 26.2407 324.644 24.4684 324.606 22.6168C324.606 20.7651 324.569 19.0457 324.493 17.4586C324.455 15.8185 324.398 14.6811 324.322 14.0462C324.132 13.5172 323.753 13.0939 323.184 12.7765C322.614 12.4591 321.988 12.221 321.305 12.0623C320.622 11.8507 319.939 11.7184 319.256 11.6655C318.611 11.5597 318.118 11.4803 317.776 11.4274C317.549 11.4274 317.15 11.401 316.581 11.3481C316.012 11.2952 315.405 11.2423 314.76 11.1894C314.114 11.1364 313.507 11.0835 312.938 11.0306C312.369 10.9777 311.99 10.9248 311.8 10.8719C311.648 10.7661 311.401 10.4751 311.06 9.999C310.756 9.46995 310.567 9.15252 310.491 9.04671V8.25314C310.491 7.40666 310.623 6.85116 310.889 6.58664C311.155 6.26921 311.591 6.05759 312.198 5.95178C312.692 5.89888 313.545 5.81952 314.76 5.71371C316.012 5.6079 317.321 5.50209 318.687 5.39628C320.091 5.23757 321.419 5.10531 322.671 4.9995C323.923 4.89369 324.796 4.84078 325.29 4.84078C325.441 4.84078 325.669 4.84078 325.973 4.84078C326.276 4.78788 326.599 4.76143 326.94 4.76143C327.282 4.76143 327.623 4.76143 327.965 4.76143C328.306 4.70852 328.591 4.68207 328.818 4.68207C329.274 4.57626 329.653 4.4969 329.957 4.444C330.26 4.33819 330.545 4.28528 330.811 4.28528C331.38 4.28528 332.499 4.28528 334.169 4.28528C335.838 4.28528 337.793 4.31174 340.031 4.36464C342.308 4.41755 344.718 4.47045 347.26 4.52335C349.802 4.57626 352.231 4.68207 354.546 4.84078C354.659 4.84078 354.849 4.89369 355.115 4.9995C355.38 5.10531 355.665 5.23757 355.969 5.39628C356.272 5.50209 356.557 5.6079 356.822 5.71371C357.088 5.81952 357.278 5.89888 357.392 5.95178C357.43 5.95178 357.543 6.00469 357.733 6.1105C357.961 6.1634 358.188 6.21631 358.416 6.26921C358.644 6.32212 358.852 6.40147 359.042 6.50728C359.27 6.56019 359.403 6.58664 359.441 6.58664C359.554 6.63954 359.763 6.85116 360.067 7.2215C360.408 7.53892 360.75 7.90926 361.091 8.3325C361.433 8.70283 361.736 9.07316 362.002 9.4435C362.306 9.81383 362.514 10.0519 362.628 10.1577C362.628 10.3164 362.723 10.4487 362.913 10.5545C363.14 10.6603 363.292 10.7661 363.368 10.8719C364.658 11.6126 365.702 12.3797 366.499 13.1733C367.295 13.9669 367.94 14.8927 368.434 15.9508C368.927 16.956 369.307 18.1463 369.572 19.5218C369.838 20.8445 370.103 22.4052 370.369 24.2039C370.483 25.1033 370.654 26.1614 370.881 27.3782C371.147 28.5421 371.28 29.5737 371.28 30.4731C371.28 30.6847 371.261 30.8964 371.223 31.108C371.185 31.2667 371.166 31.3725 371.166 31.4254C371.014 33.8061 370.748 36.1604 370.369 38.4882C369.99 40.816 369.61 43.0909 369.231 45.3129C369.117 45.4716 369.003 45.7097 368.889 46.0271C368.775 46.2916 368.68 46.4768 368.605 46.5826C368.567 46.6884 368.415 46.953 368.149 47.3762C367.921 47.7994 367.656 48.2491 367.352 48.7253C367.049 49.2014 366.764 49.6511 366.499 50.0743C366.233 50.4976 366.081 50.7356 366.043 50.7885C366.043 50.8944 365.967 51.106 365.816 51.4234L365.588 51.8995C365.019 53.328 364.298 54.3596 363.425 54.9945C362.552 55.6293 361.566 56.2377 360.465 56.8197C360.389 56.9784 360.086 57.1107 359.554 57.2165C359.023 57.3223 358.72 57.4281 358.644 57.5339C358.606 57.5339 358.492 57.6133 358.302 57.772C358.15 57.9307 357.98 58.1159 357.79 58.3275C357.6 58.5391 357.411 58.7243 357.221 58.883C357.031 59.0417 356.917 59.1475 356.879 59.2004C356.462 59.5707 355.95 59.9146 355.342 60.232C354.735 60.4966 354.109 60.7346 353.464 60.9463C352.819 61.1579 352.174 61.3166 351.529 61.4224C350.884 61.5282 350.334 61.6076 349.878 61.6605H338.21C337.603 61.9779 337.148 62.4011 336.844 62.9302C336.578 63.4592 336.389 64.0676 336.275 64.7554C336.161 65.3903 336.085 66.078 336.047 66.8187C336.047 67.5064 336.047 68.2207 336.047 68.9613C336.047 69.12 336.028 69.4639 335.99 69.993C335.952 70.522 335.914 71.104 335.876 71.7388C335.838 72.3208 335.8 72.8763 335.763 73.4053C335.725 73.9344 335.706 74.2782 335.706 74.437V75.786C335.706 76.368 335.706 76.8441 335.706 77.2145C335.744 77.5319 335.857 77.9816 336.047 78.5635C336.047 78.7752 336.047 79.119 336.047 79.5952C336.047 80.0184 336.047 80.4946 336.047 81.0236C336.085 81.4997 336.104 81.9494 336.104 82.3727C336.104 82.7959 336.104 83.0869 336.104 83.2456C336.104 84.8856 336.028 86.4992 335.876 88.0864C335.763 89.6735 335.706 91.2607 335.706 92.8478V93.0859C335.706 93.1917 335.725 93.4562 335.763 93.8795C335.8 94.2498 335.819 94.4879 335.819 94.5937C335.933 97.6092 336.066 100.334 336.218 102.767C336.37 105.201 336.768 107.661 337.413 110.148C337.451 110.412 337.66 110.73 338.039 111.1C338.419 111.417 338.836 111.735 339.291 112.052C339.785 112.37 340.259 112.634 340.714 112.846C341.17 113.057 341.511 113.163 341.739 113.163H344.016C345.002 113.163 345.97 113.11 346.919 113.005C347.867 112.846 348.835 112.766 349.821 112.766C350.087 112.766 350.391 112.899 350.732 113.163C351.074 113.428 351.377 113.772 351.643 114.195C351.946 114.618 352.193 115.068 352.383 115.544C352.572 116.02 352.667 116.443 352.667 116.814C352.667 117.343 352.629 117.792 352.553 118.163C352.478 118.586 352.193 118.93 351.7 119.194H347.317C347.089 119.194 346.691 119.168 346.122 119.115C345.59 119.062 345.021 118.983 344.414 118.877C343.807 118.824 343.238 118.745 342.707 118.639C342.213 118.586 341.891 118.533 341.739 118.48C341.663 118.48 341.53 118.454 341.341 118.401C341.189 118.348 341.018 118.295 340.828 118.242C340.639 118.242 340.449 118.216 340.259 118.163C340.107 118.11 340.012 118.083 339.974 118.083H339.576C338.703 118.189 337.831 118.269 336.958 118.321C336.085 118.374 335.174 118.48 334.226 118.639C334.112 118.639 333.884 118.612 333.543 118.56C333.239 118.507 332.898 118.427 332.518 118.321C332.177 118.269 331.835 118.216 331.494 118.163C331.19 118.11 330.962 118.083 330.811 118.083H328.135Z" fill="#369EA5"/>
<path d="M377.598 117.528C377.066 117.263 376.706 116.946 376.516 116.576C376.326 116.205 376.232 115.65 376.232 114.909C376.232 113.745 376.611 113.005 377.37 112.687C378.129 112.317 378.983 112.052 379.931 111.894C380.918 111.682 381.829 111.391 382.663 111.021C383.498 110.597 384.01 109.751 384.2 108.481C384.39 106.471 384.504 104.619 384.542 102.926C384.58 101.18 384.599 99.4609 384.599 97.768V93.4033C384.599 89.2767 384.523 85.1237 384.371 80.9442C384.257 76.7648 384.2 72.5853 384.2 68.4058C384.2 64.6496 384.257 60.9727 384.371 57.3752C384.523 53.7777 384.599 50.1272 384.599 46.4239C384.599 42.9322 384.523 39.4934 384.371 36.1075C384.257 32.7216 384.2 29.2828 384.2 25.7911V22.3787C383.897 21.1619 383.498 20.0773 383.005 19.1251C382.55 18.1199 381.886 17.3792 381.013 16.9031C380.785 16.7443 380.33 16.5856 379.647 16.4269C379.002 16.2682 378.319 16.083 377.598 15.8714C376.915 15.6598 376.289 15.3953 375.719 15.0778C375.188 14.7604 374.922 14.3107 374.922 13.7288C374.922 13.3055 374.998 12.8823 375.15 12.4591C375.34 11.9829 375.568 11.6919 375.833 11.5861C377.161 10.5809 378.527 9.70802 379.931 8.96735C381.335 8.22669 382.758 7.43312 384.2 6.58664C384.769 6.21631 385.358 5.79307 385.965 5.31693C386.61 4.84078 387.255 4.39109 387.9 3.96786C388.583 3.49171 389.266 3.12138 389.949 2.85686C390.632 2.53943 391.334 2.38071 392.055 2.38071C392.321 2.38071 392.662 2.40717 393.079 2.46007C393.535 2.51297 393.857 2.67169 394.047 2.93621C394.199 3.14783 394.313 3.57107 394.389 4.20593C394.465 4.78788 394.502 5.21112 394.502 5.47564C394.502 5.74016 394.502 6.24276 394.502 6.98343C394.54 7.67119 394.559 8.41185 394.559 9.20542C394.559 9.999 394.559 10.7661 394.559 11.5068C394.597 12.2474 394.616 12.7765 394.616 13.0939C394.616 13.5172 394.597 14.1256 394.559 14.9191C394.559 15.7127 394.559 16.5063 394.559 17.2998C394.559 18.0934 394.54 18.8076 394.502 19.4425C394.502 20.0773 394.502 20.4212 394.502 20.4741C394.502 20.7916 394.483 21.4 394.446 22.2993C394.446 23.1458 394.427 24.0452 394.389 24.9975C394.351 25.9498 394.294 26.8756 394.218 27.775C394.18 28.6215 394.123 29.2034 394.047 29.5208C394.009 29.6267 393.971 29.8383 393.933 30.1557C393.895 30.4202 393.857 30.7377 393.819 31.108C393.781 31.4783 393.744 31.8222 393.706 32.1396C393.668 32.4042 393.649 32.5893 393.649 32.6951V33.4093C393.649 33.5152 393.687 33.7797 393.763 34.2029C393.876 34.6261 393.971 34.8907 394.047 34.9965V50.3918C394.465 51.6086 394.711 52.7989 394.787 53.9628C394.863 55.0738 394.901 56.37 394.901 57.8513C394.901 58.8036 394.882 59.8882 394.844 61.105C394.806 62.3218 394.692 63.4592 394.502 64.5173C394.502 66.6864 394.521 68.7762 394.559 70.7865C394.597 72.744 394.616 74.7279 394.616 76.7383C394.616 80.0184 394.578 83.2456 394.502 86.4199C394.427 89.5942 394.275 92.8743 394.047 96.2602C394.009 96.5247 393.952 97.1595 393.876 98.1647C393.8 99.1699 393.706 100.254 393.592 101.418C393.516 102.529 393.421 103.587 393.307 104.593C393.231 105.598 393.174 106.206 393.136 106.418V107.132C393.136 107.608 393.231 108.137 393.421 108.719C393.611 109.248 393.857 109.751 394.161 110.227C394.465 110.703 394.787 111.1 395.129 111.417C395.508 111.735 395.869 111.894 396.21 111.894H403.553C403.894 111.894 404.179 112.026 404.406 112.29C404.634 112.502 404.824 112.793 404.975 113.163C405.127 113.534 405.241 113.904 405.317 114.274C405.393 114.645 405.431 114.988 405.431 115.306C405.431 116.047 405.279 116.628 404.975 117.052C404.71 117.475 404.368 117.792 403.951 118.004C403.534 118.216 403.078 118.348 402.585 118.401C402.13 118.454 401.712 118.48 401.333 118.48H400.137C396.419 118.269 392.662 118.136 388.868 118.083C385.111 118.083 381.354 117.898 377.598 117.528Z" fill="#369EA5"/>
<path d="M415.619 96.2602C415.543 95.8898 415.373 94.9375 415.107 93.4033C414.879 91.8162 414.765 89.3296 414.765 85.9437V68.009C414.69 67.7445 414.633 67.3213 414.595 66.7393C414.557 66.1574 414.538 65.7341 414.538 65.4696C414.5 65.258 414.462 64.7554 414.424 63.9618C414.424 63.1683 414.424 62.3482 414.424 61.5018C414.424 60.6024 414.424 59.7824 414.424 59.0417C414.424 58.2481 414.424 57.7455 414.424 57.5339C414.424 57.481 414.367 57.3223 414.253 57.0578C414.177 56.7403 414.082 56.3964 413.969 56.0261C413.893 55.6029 413.798 55.2061 413.684 54.8358C413.57 54.4654 413.494 54.1744 413.456 53.9628C413.305 53.328 412.906 52.8254 412.261 52.455C411.654 52.0318 410.971 51.6615 410.212 51.344C409.453 51.0266 408.694 50.7356 407.935 50.4711C407.176 50.2066 406.588 49.9421 406.171 49.6775C405.715 49.413 405.45 49.0162 405.374 48.4872C405.298 47.9581 405.26 47.4555 405.26 46.9794C405.26 46.8736 405.336 46.6091 405.488 46.1858C405.564 45.9742 405.658 45.789 405.772 45.6303C405.848 45.3658 406.095 45.0748 406.512 44.7574C406.93 44.3871 407.214 44.1755 407.366 44.1226C407.48 44.1226 407.746 44.1226 408.163 44.1226C408.618 44.1226 409.093 44.1226 409.586 44.1226C410.079 44.1226 410.535 44.1226 410.952 44.1226C411.407 44.0696 411.692 44.0167 411.806 43.9638C411.844 43.9638 411.939 43.9638 412.09 43.9638C412.28 43.9109 412.47 43.858 412.659 43.8051C412.849 43.7522 413.02 43.7258 413.172 43.7258C413.324 43.6729 413.418 43.6464 413.456 43.6464H416.132C416.245 43.6464 416.454 43.62 416.758 43.5671C417.099 43.5141 417.441 43.4612 417.782 43.4083C418.162 43.3554 418.503 43.3025 418.807 43.2496C419.148 43.1438 419.376 43.0645 419.49 43.0116C419.566 43.0116 419.679 42.9851 419.831 42.9322C420.021 42.8793 420.211 42.8528 420.4 42.8528C420.628 42.7999 420.818 42.747 420.97 42.6941C421.159 42.6412 421.273 42.6148 421.311 42.6148C422.032 42.6677 422.81 42.9586 423.645 43.4877C424.48 44.0167 425.163 44.731 425.694 45.6303V48.3285C425.694 52.4021 425.523 56.4229 425.182 60.3908C424.84 64.3057 424.669 68.3 424.669 72.3737C424.669 74.0666 424.745 75.7331 424.897 77.3732C425.087 79.0132 425.182 80.7326 425.182 82.5314C425.182 83.3779 425.087 84.2508 424.897 85.1502C424.745 85.9966 424.669 86.896 424.669 87.8483C424.669 90.3877 424.802 92.7949 425.068 95.0698C425.371 97.3447 425.903 99.3286 426.661 101.022C427.42 102.715 428.445 104.064 429.735 105.069C431.063 106.074 432.752 106.577 434.801 106.577C435.522 106.577 436.3 106.497 437.134 106.339C437.969 106.18 438.785 105.942 439.582 105.624C440.417 105.307 441.195 104.884 441.916 104.355C442.675 103.826 443.339 103.191 443.908 102.45C444.856 101.074 445.577 99.7519 446.071 98.4822C446.602 97.2125 446.981 95.8898 447.209 94.5143C447.475 93.0859 447.626 91.6046 447.664 90.0703C447.702 88.4832 447.721 86.7109 447.721 84.7534C447.721 84.2772 447.74 83.6688 447.778 82.9282C447.816 82.1875 447.835 81.4468 447.835 80.7062C447.721 79.2248 447.626 78.008 447.551 77.0557C447.513 76.0506 447.475 75.0454 447.437 74.0402C447.399 72.9821 447.361 71.8182 447.323 70.5485C447.323 69.2788 447.323 67.6387 447.323 65.6283V50.3918C447.323 50.233 447.209 50.0743 446.981 49.9156C446.792 49.704 446.545 49.5188 446.241 49.3601C445.976 49.1485 445.691 48.9898 445.388 48.884C445.084 48.7253 444.837 48.6459 444.648 48.6459C444.61 48.5401 444.287 48.4872 443.68 48.4872C443.149 48.4872 442.58 48.5136 441.973 48.5665C441.365 48.6195 441.024 48.6459 440.948 48.6459C440.531 48.593 440.056 48.4607 439.525 48.2491C439.032 48.0375 438.538 47.773 438.045 47.4555C437.59 47.1381 437.191 46.7413 436.85 46.2652C436.546 45.789 436.395 45.2335 436.395 44.5987V44.1226C436.47 43.9638 436.565 43.8051 436.679 43.6464C436.755 43.5406 436.812 43.4348 436.85 43.329C436.926 43.2232 436.983 43.1174 437.021 43.0116C437.134 43.0116 437.343 42.9851 437.647 42.9322C437.988 42.8793 438.33 42.8528 438.671 42.8528C439.013 42.7999 439.335 42.747 439.639 42.6941C439.98 42.6412 440.208 42.6148 440.322 42.6148C440.967 42.509 441.593 42.3767 442.2 42.218C442.807 42.0064 443.377 41.9006 443.908 41.9006C444.667 41.9006 445.445 42.0064 446.241 42.218C447.038 42.3767 447.835 42.509 448.632 42.6148C448.784 42.6148 449.087 42.6412 449.543 42.6941C450.036 42.747 450.548 42.7999 451.079 42.8528C451.611 42.8528 452.085 42.8793 452.502 42.9322C452.958 42.9851 453.242 43.0116 453.356 43.0116C453.508 43.0645 453.755 43.0909 454.096 43.0909C454.476 43.0909 454.836 43.1174 455.178 43.1703C455.557 43.1703 455.899 43.2496 456.202 43.4083C456.506 43.5141 456.695 43.7522 456.771 44.1226C456.885 44.5458 456.999 45.0484 457.113 45.6303C457.265 46.1594 457.378 46.7413 457.454 47.3762C457.568 48.011 457.644 48.6459 457.682 49.2808C457.758 49.8627 457.796 50.3653 457.796 50.7885C457.796 57.6662 457.625 64.5438 457.284 71.4214C456.942 78.2461 456.771 85.0973 456.771 91.9749V97.5299C456.771 97.6357 456.79 97.9267 456.828 98.4028C456.904 98.826 456.98 99.3022 457.056 99.8312C457.132 100.36 457.189 100.889 457.227 101.418C457.303 101.895 457.36 102.238 457.397 102.45C457.397 102.767 457.473 103.191 457.625 103.72C457.815 104.196 458.043 104.672 458.308 105.148C458.612 105.571 458.934 105.942 459.276 106.259C459.617 106.524 459.978 106.629 460.357 106.577C460.433 106.577 460.566 106.524 460.756 106.418C460.983 106.312 461.211 106.18 461.439 106.021C461.704 105.862 461.932 105.73 462.122 105.624C462.349 105.518 462.501 105.466 462.577 105.466C462.615 105.413 462.748 105.386 462.975 105.386C463.203 105.333 463.431 105.307 463.658 105.307C463.924 105.254 464.171 105.228 464.398 105.228C464.626 105.175 464.778 105.148 464.854 105.148C464.854 106.788 464.588 108.084 464.057 109.037C463.564 109.936 462.919 110.677 462.122 111.259C461.363 111.788 460.509 112.237 459.56 112.608C458.612 112.978 457.682 113.428 456.771 113.957C456.24 114.274 455.709 114.671 455.178 115.147C454.684 115.623 454.172 116.073 453.641 116.496C453.148 116.919 452.616 117.29 452.047 117.607C451.516 117.925 450.966 118.083 450.396 118.083C449.6 118.083 449.011 117.978 448.632 117.766C448.253 117.554 447.968 117.237 447.778 116.814C447.626 116.338 447.532 115.782 447.494 115.147C447.494 114.459 447.437 113.666 447.323 112.766C447.323 112.608 447.247 112.29 447.095 111.814C446.981 111.338 446.924 111.047 446.924 110.941C446.886 110.73 446.83 110.412 446.754 109.989C446.716 109.566 446.678 109.142 446.64 108.719C446.602 108.243 446.545 107.82 446.469 107.45C446.431 107.026 446.393 106.735 446.355 106.577H446.071C445.767 106.577 445.388 106.735 444.932 107.053C444.477 107.317 444.022 107.635 443.566 108.005C443.111 108.375 442.656 108.772 442.2 109.195C441.783 109.619 441.46 109.936 441.233 110.148C441.157 110.201 441.005 110.412 440.777 110.783C440.55 111.153 440.284 111.576 439.98 112.052C439.715 112.475 439.449 112.872 439.184 113.243C438.956 113.613 438.823 113.851 438.785 113.957C438.368 114.327 437.723 114.83 436.85 115.465C436.015 116.047 435.104 116.628 434.118 117.21C433.131 117.792 432.183 118.295 431.272 118.718C430.361 119.141 429.678 119.353 429.223 119.353H428.141C427.914 119.3 427.591 119.221 427.174 119.115C426.794 119.062 426.396 118.983 425.978 118.877C425.599 118.824 425.257 118.771 424.954 118.718C424.65 118.665 424.461 118.586 424.385 118.48C424.309 118.48 424.081 118.348 423.702 118.083C423.322 117.766 423.095 117.528 423.019 117.369C422.374 116.893 421.747 116.47 421.14 116.099C420.571 115.676 420.021 115.2 419.49 114.671C418.996 114.142 418.541 113.534 418.124 112.846C417.706 112.158 417.327 111.259 416.985 110.148C416.871 109.83 416.739 109.407 416.587 108.878C416.435 108.296 416.283 107.476 416.132 106.418C416.018 105.36 415.904 104.037 415.79 102.45C415.676 100.81 415.619 98.7467 415.619 96.2602Z" fill="#369EA5"/>
<path d="M481.588 71.0246C481.588 71.0775 481.626 71.2362 481.702 71.5008C481.816 71.7124 481.929 71.9504 482.043 72.215C482.157 72.4795 482.252 72.744 482.328 73.0085C482.442 73.2731 482.499 73.4582 482.499 73.564C482.612 73.9873 482.688 74.437 482.726 74.9131C482.802 75.3892 482.859 75.8654 482.897 76.3415C482.973 76.8177 483.068 77.2674 483.182 77.6906C483.295 78.1138 483.466 78.4842 483.694 78.8016C483.808 78.8545 483.978 79.0132 484.206 79.2777C484.434 79.4894 484.661 79.7274 484.889 79.992C485.155 80.2565 485.382 80.521 485.572 80.7855C485.8 80.9972 485.952 81.1294 486.027 81.1823C486.103 81.2881 486.236 81.6056 486.426 82.1346C486.616 82.6637 486.748 82.9811 486.824 83.0869C487.166 83.4043 487.564 83.7217 488.02 84.0392C488.475 84.3037 488.949 84.5682 489.443 84.8327C489.974 85.0444 490.467 85.2295 490.922 85.3882C491.416 85.4941 491.852 85.547 492.232 85.547C494.357 85.547 496.026 84.9386 497.24 83.7217C498.455 82.452 499.403 80.8384 500.086 78.881C500.769 76.9235 501.263 74.7544 501.566 72.3737C501.908 69.993 502.249 67.6916 502.591 65.4696C502.591 65.4167 502.629 65.2315 502.705 64.9141C502.818 64.5967 502.875 64.3851 502.875 64.2793V63.7238C502.875 62.1895 502.762 60.6817 502.534 59.2004C502.306 57.6662 501.946 56.2642 501.452 54.9945C500.997 53.7248 500.371 52.5873 499.574 51.5821C498.815 50.5769 497.886 49.7834 496.785 49.2014C496.557 49.0956 496.235 48.9633 495.817 48.8046C495.438 48.593 495.04 48.4078 494.622 48.2491C494.243 48.0904 493.882 47.9581 493.541 47.8523C493.199 47.6936 492.991 47.5878 492.915 47.5349H491.662C490.296 47.5349 489.063 47.9846 487.963 48.884C486.9 49.7305 485.971 50.8679 485.174 52.2963C484.415 53.6719 483.77 55.2325 483.238 56.9784C482.745 58.6714 482.366 60.3643 482.1 62.0573C482.024 62.1631 481.986 62.5334 481.986 63.1683C481.986 63.8031 481.986 64.1734 481.986 64.2793C481.986 64.3851 481.91 64.5967 481.759 64.9141C481.645 65.2315 481.588 65.4167 481.588 65.4696V71.0246ZM478.571 132.368C478.571 133.32 478.761 134.193 479.14 134.986C479.558 135.78 479.918 136.547 480.222 137.288C480.26 137.394 480.317 137.579 480.393 137.843C480.506 138.108 480.601 138.372 480.677 138.637C480.791 138.954 480.886 139.219 480.962 139.43C481.038 139.695 481.095 139.854 481.132 139.907C481.246 140.065 481.474 140.383 481.816 140.859C482.195 141.335 482.593 141.864 483.011 142.446C483.428 143.028 483.846 143.583 484.263 144.113C484.68 144.642 484.984 145.038 485.174 145.303C485.933 146.308 486.748 146.996 487.621 147.366C488.532 147.736 489.443 148.08 490.353 148.398C490.429 148.398 490.581 148.451 490.809 148.556C491.074 148.662 491.34 148.795 491.606 148.953C491.909 149.112 492.175 149.244 492.402 149.35C492.668 149.456 492.839 149.509 492.915 149.509H495.704C497.677 149.509 499.441 149.324 500.997 148.953C502.553 148.636 504.014 148.054 505.38 147.207C506.746 146.414 508.074 145.303 509.364 143.874C510.654 142.499 511.982 140.78 513.348 138.716C513.386 138.558 513.443 138.319 513.519 138.002C513.633 137.685 513.69 137.447 513.69 137.288C514.031 135.013 514.202 132.817 514.202 130.701C514.202 128.479 514.031 126.337 513.69 124.273C513.69 124.22 513.576 123.929 513.348 123.4C513.121 122.924 512.855 122.395 512.552 121.813C512.248 121.231 511.944 120.676 511.641 120.147C511.375 119.671 511.204 119.406 511.129 119.353C510.332 118.718 509.497 118.269 508.624 118.004C507.789 117.739 506.936 117.528 506.063 117.369C505.228 117.158 504.393 116.972 503.558 116.814C502.762 116.602 501.984 116.258 501.225 115.782H491.549C491.511 115.782 491.34 115.808 491.036 115.861C490.771 115.861 490.448 115.888 490.069 115.941C489.727 115.994 489.367 116.047 488.987 116.099C488.646 116.099 488.38 116.126 488.19 116.179C488.077 116.232 487.868 116.311 487.564 116.417C487.299 116.47 487.014 116.549 486.711 116.655C486.407 116.761 486.103 116.919 485.8 117.131C485.534 117.29 485.325 117.475 485.174 117.687C484.984 117.898 484.68 118.269 484.263 118.798C483.846 119.327 483.428 119.882 483.011 120.464C482.593 121.046 482.195 121.575 481.816 122.051C481.474 122.527 481.246 122.845 481.132 123.004C480.336 124.326 479.71 125.781 479.254 127.368C478.799 129.008 478.571 130.675 478.571 132.368ZM488.532 156.81L487.963 157.127C487.659 157.286 487.413 157.365 487.223 157.365C487.147 157.418 487.09 157.471 487.052 157.524C486.976 157.577 486.9 157.603 486.824 157.603C486.748 157.603 486.673 157.55 486.597 157.444C486.521 157.392 486.445 157.365 486.369 157.365C486.293 157.365 486.122 157.312 485.857 157.206C485.629 157.101 485.363 156.968 485.06 156.81C484.794 156.651 484.529 156.492 484.263 156.333C483.997 156.228 483.808 156.148 483.694 156.095C483.618 156.043 483.39 155.963 483.011 155.857C482.631 155.752 482.233 155.646 481.816 155.54C481.398 155.434 481 155.328 480.62 155.222C480.241 155.117 480.013 155.037 479.937 154.984C478.723 154.297 477.49 153.45 476.237 152.445C475.023 151.44 473.923 150.249 472.936 148.874C471.95 147.551 471.134 146.044 470.489 144.351C469.882 142.658 469.578 140.78 469.578 138.716V136.891C469.578 136.785 469.635 136.574 469.749 136.256C469.863 135.939 469.939 135.727 469.976 135.621C469.976 135.568 469.995 135.357 470.033 134.986C470.071 134.669 470.109 134.299 470.147 133.875C470.185 133.452 470.223 133.055 470.261 132.685C470.299 132.315 470.318 132.077 470.318 131.971C470.356 131.918 470.451 131.706 470.603 131.336C470.754 131.019 470.925 130.622 471.115 130.146C471.305 129.722 471.475 129.273 471.627 128.797C471.817 128.32 471.969 127.95 472.082 127.686C472.12 127.686 472.196 127.606 472.31 127.448C472.424 127.342 472.5 127.289 472.538 127.289C473.335 126.548 473.98 125.649 474.473 124.591C475.004 123.533 475.649 122.607 476.408 121.813C476.788 121.39 477.148 120.993 477.49 120.623C477.869 120.305 478.192 119.961 478.457 119.591C478.761 119.274 478.989 118.877 479.14 118.401C479.33 117.925 479.425 117.369 479.425 116.734C479.425 116.205 479.33 115.782 479.14 115.465C478.989 115.147 478.78 114.909 478.514 114.75C478.287 114.592 478.021 114.459 477.717 114.354C477.414 114.248 477.129 114.116 476.864 113.957C475.953 113.216 475.194 112.528 474.587 111.894C473.98 111.259 473.467 110.359 473.05 109.195C472.936 108.825 472.765 108.375 472.538 107.846C472.348 107.317 472.158 106.815 471.969 106.339C471.779 105.809 471.608 105.36 471.456 104.989C471.305 104.566 471.21 104.302 471.172 104.196V103.244C471.172 102.715 471.191 102.08 471.229 101.339C471.267 100.545 471.324 99.7783 471.399 99.0377C471.513 98.2441 471.646 97.5034 471.798 96.8157C471.988 96.075 472.234 95.4666 472.538 94.9905C472.576 94.8846 472.69 94.6995 472.879 94.435C473.107 94.1704 473.335 93.8795 473.562 93.562C473.828 93.2446 474.056 92.9536 474.245 92.6891C474.473 92.3717 474.625 92.1336 474.701 91.9749C475.346 91.3929 476.067 90.8374 476.864 90.3084C477.698 89.7793 478.438 89.1445 479.083 88.4038C479.273 88.3509 479.501 88.0864 479.766 87.6102C480.07 87.0812 480.222 86.7638 480.222 86.658C480.108 86.3934 479.994 86.1554 479.88 85.9437C479.804 85.785 479.728 85.6263 479.653 85.4676C479.577 85.3089 479.501 85.2031 479.425 85.1502C479.235 84.8327 478.894 84.3037 478.4 83.563C477.907 82.8224 477.376 82.0552 476.807 81.2617C476.275 80.4681 475.763 79.7274 475.27 79.0397C474.777 78.3519 474.435 77.9022 474.245 77.6906C473.828 76.7383 473.505 75.7331 473.278 74.675C473.05 73.6169 472.803 72.5853 472.538 71.5801C472.538 71.4214 472.538 71.1304 472.538 70.7072C472.538 70.231 472.519 69.7284 472.481 69.1994C472.481 68.6703 472.481 68.1678 472.481 67.6916C472.481 67.1626 472.481 66.7922 472.481 66.5806C472.481 62.8773 472.841 59.6765 473.562 56.9784C474.283 54.2274 475.308 51.8995 476.636 49.995C478.002 48.0375 479.653 46.4768 481.588 45.3129C483.523 44.149 485.724 43.2496 488.19 42.6148C488.228 42.6148 488.456 42.5883 488.873 42.5354C489.291 42.4825 489.765 42.4296 490.296 42.3767C490.866 42.3238 491.416 42.2709 491.947 42.218C492.516 42.1122 492.972 42.0593 493.313 42.0593H494.338C494.603 42.1651 494.85 42.2709 495.078 42.3767C495.457 42.5354 495.723 42.6148 495.874 42.6148C496.026 42.6148 496.235 42.6677 496.5 42.7735C496.766 42.8264 497.032 42.9057 497.297 43.0116C497.601 43.0645 497.848 43.1174 498.037 43.1703C498.265 43.2232 498.398 43.2496 498.436 43.2496C499.005 43.3025 499.536 43.4083 500.029 43.5671C500.523 43.6729 500.997 43.8051 501.452 43.9638C501.908 44.1226 502.363 44.2813 502.818 44.44C503.312 44.5458 503.824 44.5987 504.355 44.5987C505.57 44.5987 506.727 44.4135 507.827 44.0432C508.928 43.62 510.028 43.1438 511.129 42.6148C511.167 42.6148 511.318 42.5354 511.584 42.3767C511.85 42.1651 512.115 41.9535 512.381 41.7418C512.684 41.4773 512.95 41.2657 513.178 41.107C513.443 40.8954 513.614 40.7896 513.69 40.7896C513.842 40.7896 513.993 40.7631 514.145 40.7102C514.259 40.7102 514.373 40.7102 514.487 40.7102C514.639 40.6573 514.752 40.6308 514.828 40.6308C515.549 40.6308 516.308 40.7102 517.105 40.8689C517.902 41.0276 518.623 41.3451 519.268 41.8212C519.951 42.2444 520.501 42.8528 520.919 43.6464C521.374 44.44 521.602 45.4452 521.602 46.662C521.602 48.6195 521.279 49.8627 520.634 50.3918C519.989 50.9208 519.021 51.1853 517.731 51.1853C517.162 51.1853 516.612 51.0531 516.08 50.7885C515.587 50.524 515.075 50.233 514.544 49.9156C514.05 49.5982 513.538 49.3072 513.007 49.0427C512.476 48.7782 511.925 48.6459 511.356 48.6459C510.483 48.6459 509.857 49.0427 509.478 49.8363C509.136 50.6298 508.966 51.5557 508.966 52.6138C508.966 53.1428 509.004 53.566 509.079 53.8835C509.193 54.2009 509.307 54.4919 509.421 54.7564C509.573 54.968 509.706 55.2061 509.819 55.4706C509.971 55.7351 510.085 56.1055 510.161 56.5816C510.616 57.9571 511.034 59.3591 511.413 60.7875C511.831 62.216 512.039 63.6973 512.039 65.2315C512.039 66.078 511.963 67.2684 511.812 68.8026C511.66 70.2839 511.432 71.8182 511.129 73.4053C510.863 74.9925 510.502 76.4738 510.047 77.8493C509.592 79.1719 509.079 80.1242 508.51 80.7062C508.434 80.7591 508.264 80.8913 507.998 81.103C507.77 81.3146 507.505 81.5527 507.201 81.8172C506.898 82.0817 506.613 82.3462 506.347 82.6107C506.12 82.8753 505.987 83.034 505.949 83.0869C505.494 83.6688 505.076 84.2772 504.697 84.9121C504.317 85.4941 503.881 85.8908 503.388 86.1025C503.312 86.1025 503.141 86.1289 502.875 86.1818C502.61 86.2347 502.325 86.3141 502.022 86.4199C501.718 86.4728 501.433 86.5257 501.168 86.5786C500.902 86.6315 500.75 86.658 500.712 86.658C500.675 86.7109 500.58 86.8167 500.428 86.9754C500.276 87.0812 500.105 87.2135 499.916 87.3722C499.726 87.478 499.536 87.5838 499.346 87.6896C499.195 87.7954 499.1 87.8483 499.062 87.8483C498.986 87.9012 498.834 87.9541 498.606 88.007C498.379 88.0599 498.113 88.1128 497.81 88.1657C497.544 88.2186 497.278 88.2716 497.013 88.3245C496.785 88.3774 496.614 88.4038 496.5 88.4038C495.134 88.6154 493.768 88.7741 492.402 88.88C491.036 88.9329 489.67 89.0651 488.304 89.2767C486.976 89.4884 485.686 89.8587 484.434 90.3877C483.182 90.8639 481.986 91.631 480.848 92.6891C480.696 92.7949 480.506 92.9801 480.279 93.2446C480.089 93.4562 479.899 93.6943 479.71 93.9588C479.558 94.2233 479.406 94.4614 479.254 94.673C479.14 94.8846 479.083 94.9905 479.083 94.9905C479.083 95.1492 479.178 95.6253 479.368 96.4189C479.596 97.1595 479.785 97.6886 479.937 98.006C480.203 99.0112 480.506 99.937 480.848 100.784C481.189 101.63 481.74 102.185 482.499 102.45C484.13 103.138 485.724 103.693 487.28 104.117C488.873 104.54 490.562 104.751 492.345 104.751C493.218 104.751 494.3 104.646 495.59 104.434C496.918 104.169 498.075 103.878 499.062 103.561C499.29 103.508 499.479 103.429 499.631 103.323C500.01 103.111 500.2 103.006 500.2 103.006H501.225C502.743 103.27 504.355 103.614 506.063 104.037C507.808 104.407 509.497 104.884 511.129 105.466C511.47 105.624 511.831 105.889 512.21 106.259C512.627 106.577 513.026 106.947 513.405 107.37C513.823 107.74 514.202 108.137 514.544 108.561C514.923 108.984 515.246 109.328 515.511 109.592C516.156 110.386 516.82 111.338 517.503 112.449C518.186 113.507 518.813 114.645 519.382 115.861C519.951 117.078 520.425 118.321 520.805 119.591C521.222 120.914 521.488 122.183 521.602 123.4C521.677 125.411 521.753 127.448 521.829 129.511C521.943 131.574 522 133.584 522 135.542C522 135.595 521.981 135.621 521.943 135.621C521.943 135.674 521.943 135.754 521.943 135.859C521.905 135.965 521.886 136.071 521.886 136.177C521.772 137.235 521.526 138.214 521.146 139.113C520.805 140.065 520.387 140.938 519.894 141.732C519.401 142.525 518.869 143.266 518.3 143.954C517.769 144.694 517.257 145.409 516.764 146.096C516.574 146.255 516.308 146.493 515.967 146.811C515.625 147.181 515.265 147.551 514.885 147.922C514.544 148.292 514.221 148.636 513.918 148.953C513.614 149.271 513.424 149.456 513.348 149.509C513.272 149.562 513.121 149.615 512.893 149.667C512.703 149.72 512.476 149.773 512.21 149.826C511.982 149.932 511.755 150.011 511.527 150.064C511.299 150.117 511.167 150.17 511.129 150.223C510.977 150.276 510.635 150.461 510.104 150.778C509.611 151.149 509.061 151.519 508.453 151.889C507.884 152.313 507.353 152.683 506.86 153C506.366 153.371 506.063 153.582 505.949 153.635C505.683 153.9 505.266 154.191 504.697 154.508C504.166 154.826 503.824 154.984 503.672 154.984C503.634 155.037 503.464 155.09 503.16 155.143C502.894 155.196 502.591 155.249 502.249 155.302C501.908 155.355 501.585 155.408 501.282 155.461C500.978 155.513 500.788 155.54 500.712 155.54C500.637 155.699 500.409 155.857 500.029 156.016C499.65 156.175 499.384 156.254 499.233 156.254C499.005 156.254 498.758 156.228 498.493 156.175C498.265 156.122 498.113 156.095 498.037 156.095C497.886 156.201 497.544 156.307 497.013 156.413C496.519 156.572 496.14 156.704 495.874 156.81C495.836 156.81 495.704 156.863 495.476 156.968C495.286 157.074 495.059 157.18 494.793 157.286C494.565 157.444 494.338 157.577 494.11 157.683C493.882 157.841 493.749 157.947 493.711 158H493.313C493.123 157.947 492.877 157.894 492.573 157.841C492.307 157.788 492.023 157.735 491.719 157.683C491.416 157.63 491.131 157.577 490.866 157.524C490.6 157.471 490.429 157.418 490.353 157.365C490.315 157.365 490.202 157.339 490.012 157.286C489.86 157.233 489.67 157.154 489.443 157.048C489.253 156.995 489.063 156.942 488.873 156.889C488.722 156.836 488.608 156.81 488.532 156.81Z" fill="#369EA5"/>
</svg>
